<svg version="1.1" id="Layer_1" xmlns="http://www.w3.org/2000/svg" xmlns:xlink="http://www.w3.org/1999/xlink" x="0px" y="0px"
	 width="100%" viewBox="0 0 496 496" enable-background="new 0 0 496 496" xml:space="preserve">
<path fill="#000000" opacity="1.000000" stroke="none" 
	d="
M497.000000,194.750000 
	C488.550385,195.890228 480.050964,195.551773 471.575806,195.966751 
	C447.634827,197.139053 423.657135,197.540131 399.699463,198.400085 
	C378.076904,199.176208 356.461700,200.157532 334.843140,201.046341 
	C333.511688,201.101089 332.178619,201.194366 330.847870,201.172409 
	C327.410706,201.115677 323.075867,202.116455 321.363068,198.504303 
	C319.899139,195.417068 322.872070,192.323959 324.197632,189.336029 
	C325.369690,186.694061 327.656677,186.575790 330.083008,186.662430 
	C342.560089,187.108017 355.041321,187.453583 367.514557,187.986877 
	C377.819000,188.427444 388.109161,189.214890 398.414703,189.614548 
	C428.518860,190.782028 458.628021,191.818405 488.733429,192.954315 
	C491.219940,193.048126 493.692749,193.505493 496.585938,193.896973 
	C497.000000,194.000000 497.000000,194.500000 497.000000,194.750000 
z"/>
<path fill="#000000" opacity="1.000000" stroke="none" 
	d="
M1.000000,352.333313 
	C15.775669,339.926453 31.981253,330.065582 49.111145,321.806519 
	C56.824474,318.087555 64.230629,315.405914 65.720123,304.962463 
	C66.552826,299.124054 72.723984,297.113800 79.680527,299.528442 
	C85.214653,301.449310 88.649292,300.215271 93.259026,296.695068 
	C108.373192,285.153259 124.879868,275.740417 142.321838,268.063660 
	C144.418335,267.140930 146.572952,266.109161 149.343658,266.891327 
	C148.984085,270.085815 146.345566,271.601746 144.291412,273.098846 
	C128.915756,284.304626 113.042305,295.062225 95.170265,301.549866 
	C84.654434,305.367188 76.000130,312.056427 65.973984,316.415985 
	C62.940651,317.734955 61.343666,321.391937 58.499023,323.473175 
	C43.397099,334.522125 27.360149,343.967407 10.403910,351.845306 
	C7.717003,353.093658 4.851656,354.101807 1.396056,354.088745 
	C1.000000,353.555542 1.000000,353.111115 1.000000,352.333313 
z"/>
<path fill="#000000" opacity="1.000000" stroke="none" 
	d="
M63.851883,321.159027 
	C72.553055,316.168701 80.392296,310.488892 89.170120,306.320160 
	C93.152557,304.428833 95.390190,305.289032 97.395302,308.650055 
	C100.380821,313.654419 103.497467,318.588226 106.278137,323.704315 
	C108.045784,326.956635 110.385864,328.144409 113.999786,327.570129 
	C131.230255,324.831940 148.475372,322.185974 165.714264,319.500732 
	C168.363678,319.088043 169.897263,317.647644 171.250992,315.164215 
	C184.428848,290.989258 204.584442,278.230042 232.443771,278.665527 
	C236.267532,278.725281 238.957428,277.851624 241.408676,274.690521 
	C252.331772,260.604126 263.457306,246.673370 274.629089,232.782425 
	C276.374115,230.612686 276.572174,228.911758 275.110077,226.557648 
	C271.947205,221.465195 268.955902,216.262924 266.005646,211.042694 
	C263.036377,205.788773 263.322327,204.325729 268.298004,201.284073 
	C275.545258,196.853836 282.953766,192.687912 290.221130,188.289642 
	C293.775818,186.138321 296.565308,186.807297 298.772400,190.136703 
	C301.254669,193.881119 303.836823,197.584808 305.260956,201.918167 
	C307.232452,207.917130 306.125031,212.908218 301.030426,216.581253 
	C295.956085,220.239670 292.783844,225.007812 290.049530,230.476959 
	C281.632690,247.312439 272.998657,264.040985 264.283051,280.724396 
	C261.630585,285.801758 261.218018,290.534241 263.587952,295.914948 
	C267.694855,305.239319 266.207367,310.104553 257.240509,314.809906 
	C252.305527,317.399536 251.164612,320.116028 252.740936,325.311615 
	C254.209915,330.153442 253.988953,335.196259 250.340057,339.483185 
	C248.768356,341.329712 248.940018,343.878418 248.389297,346.114960 
	C245.397110,358.266388 235.829453,363.971039 223.767822,360.534973 
	C220.551819,359.618805 217.463104,358.940613 214.038162,359.244324 
	C209.612701,359.636780 205.723236,357.445282 202.964233,354.336884 
	C199.326752,350.238800 195.997040,350.013550 191.926682,353.266602 
	C191.034332,353.979767 189.897888,354.414490 188.830368,354.877106 
	C182.314240,357.701294 177.245361,356.991821 173.541443,350.962677 
	C168.736038,343.140625 161.826920,341.486511 153.599777,341.353302 
	C134.777374,341.048492 115.957779,340.544403 97.139687,340.025421 
	C94.037071,339.939880 91.266045,340.731781 88.443237,341.858093 
	C78.858955,345.682343 74.293221,344.431793 68.419800,335.841583 
	C65.514282,331.592133 61.870449,327.337097 63.851883,321.159027 
M239.335464,345.590271 
	C240.195953,337.033630 234.261002,330.755524 227.152100,332.702484 
	C222.808563,333.892059 219.533508,338.075500 219.401917,342.602325 
	C219.280045,346.794800 222.838226,351.249481 227.212891,352.381317 
	C231.710159,353.544830 235.976807,351.344910 239.335464,345.590271 
z"/>
<path fill="#000000" opacity="1.000000" stroke="none" 
	d="
M330.594788,345.834717 
	C316.989014,346.362915 303.849274,346.827362 290.709564,347.291199 
	C283.227631,347.555298 275.740692,347.725067 268.265686,348.120209 
	C264.348907,348.327240 263.285889,346.501038 263.706635,342.972290 
	C264.471924,336.554443 267.635834,333.486328 274.028656,333.715088 
	C308.613190,334.952667 343.193512,336.308380 377.777191,337.570648 
	C398.230774,338.317169 418.687500,338.977264 439.143860,339.645203 
	C441.764221,339.730774 444.356659,339.759521 446.678528,341.299469 
	C445.985626,342.438904 445.118500,342.311798 444.329346,342.332672 
	C418.543427,343.014832 392.755920,343.641541 366.971802,344.385468 
	C354.998108,344.730927 343.030975,345.301941 330.594788,345.834717 
z"/>
<path fill="#000000" opacity="1.000000" stroke="none" 
	d="
M428.855255,270.101349 
	C393.438477,271.212250 358.497620,272.135468 323.574738,273.513855 
	C313.592682,273.907837 303.614471,274.236084 293.629608,274.422974 
	C287.004730,274.546997 285.990234,273.076202 288.428345,267.148895 
	C291.480164,259.729706 292.037231,259.568420 299.959412,260.317047 
	C308.902954,261.162201 317.906128,261.051727 326.880554,261.505920 
	C354.794647,262.918732 382.741028,263.678741 410.666199,264.892090 
	C426.788055,265.592560 442.895813,266.600494 459.039185,266.747406 
	C460.259613,266.758484 461.734253,266.303162 463.076050,268.627380 
	C451.591125,270.126770 440.359741,268.582031 428.855255,270.101349 
z"/>
<path fill="#000000" opacity="1.000000" stroke="none" 
	d="
M480.281586,217.597076 
	C484.879089,217.602417 489.005554,217.602417 493.131989,217.602417 
	C493.166656,218.091110 493.201324,218.579819 493.235962,219.068512 
	C488.653076,219.430984 484.076111,219.975952 479.486298,220.125595 
	C454.180969,220.950668 428.870331,221.612854 403.565796,222.459213 
	C377.431824,223.333313 351.304108,224.397491 325.169464,225.249390 
	C322.303375,225.342819 318.255646,226.599197 317.708649,221.811646 
	C317.153229,216.949875 322.074707,210.602798 326.118164,210.778152 
	C345.245392,211.607620 364.365997,212.588882 383.492004,213.447647 
	C392.640167,213.858383 401.792328,214.067703 410.942719,214.565964 
	C433.885559,215.815262 456.852997,216.612930 480.281586,217.597076 
z"/>
<path fill="#000000" opacity="1.000000" stroke="none" 
	d="
M350.115662,237.666931 
	C379.513580,238.963501 408.425201,240.294601 437.340912,241.530807 
	C448.642395,242.013962 459.953125,242.279083 471.259277,242.655975 
	C473.039703,242.715317 474.886322,242.369446 477.352142,243.587296 
	C472.467133,244.865417 468.212708,244.972443 463.985321,245.104904 
	C438.204834,245.912674 412.420074,246.589844 386.641968,247.465622 
	C361.698090,248.313049 336.760742,249.352417 311.819855,250.289749 
	C309.824677,250.364746 307.818054,250.403931 305.827576,250.282394 
	C301.267303,250.003937 300.231049,248.462418 301.603180,244.218216 
	C304.171234,236.274780 305.318573,235.431961 313.754944,235.831299 
	C325.715729,236.397476 337.672516,237.048645 350.115662,237.666931 
z"/>
<path fill="#000000" opacity="1.000000" stroke="none" 
	d="
M286.065308,299.183167 
	C282.431610,298.953400 278.062195,300.582092 276.823395,296.599365 
	C275.574921,292.585571 278.747375,289.073669 280.870911,285.731232 
	C281.787598,284.288361 283.587555,284.651031 285.044983,284.700928 
	C297.192810,285.116913 309.341278,285.531403 321.484650,286.058258 
	C331.959351,286.512787 342.424530,287.188538 352.899475,287.636322 
	C385.333191,289.022797 417.769592,290.346283 450.204651,291.701355 
	C451.014618,291.735199 451.891205,291.652802 452.888062,293.158722 
	C397.154053,295.173615 341.844940,297.173157 286.065308,299.183167 
z"/>
<path fill="#000000" opacity="1.000000" stroke="none" 
	d="
M409.003540,314.719177 
	C422.686127,315.911255 436.011963,315.079681 449.287109,316.967194 
	C448.761444,318.748749 447.587250,318.309296 446.738068,318.334015 
	C422.435425,319.041901 398.127625,319.593536 373.829285,320.423096 
	C343.207428,321.468506 312.593231,322.737549 281.975403,323.902557 
	C280.811127,323.946869 279.637268,323.993622 278.479065,323.900269 
	C273.057281,323.463318 272.146301,321.873383 273.923340,316.847076 
	C275.765167,311.637360 278.314178,309.077576 284.765900,309.456390 
	C314.675964,311.212677 344.626404,312.290131 374.565033,313.547852 
	C385.877014,314.023102 397.196106,314.329041 409.003540,314.719177 
z"/>
<path fill="#000000" opacity="1.000000" stroke="none" 
	d="
M264.743561,198.685516 
	C264.717743,197.520294 264.656403,196.354614 264.671600,195.189926 
	C264.826324,183.334244 273.102081,177.488312 284.201721,181.839493 
	C287.745178,183.228577 289.618042,182.431137 292.425568,180.217880 
	C308.446106,167.588547 325.973053,157.402298 344.712494,149.330811 
	C346.222504,148.680405 347.896698,148.390060 349.516205,148.029465 
	C349.931519,147.936981 350.429291,148.214828 351.155396,148.384888 
	C350.184265,151.999771 347.308746,153.958038 344.751099,155.727203 
	C329.268158,166.437149 313.671875,177.295258 295.843506,183.540863 
	C284.983673,187.345245 276.233429,194.535538 265.458679,198.932556 
	C265.053375,199.003601 264.743561,198.685516 264.743561,198.685516 
z"/>
<path fill="#000000" opacity="1.000000" stroke="none" 
	d="
M265.210083,199.160858 
	C260.734863,205.590271 254.308762,209.678604 247.813370,213.659637 
	C235.782364,221.033432 223.794144,228.497620 210.685135,233.887451 
	C208.436768,234.811859 206.179001,235.922958 203.501740,235.616119 
	C203.226578,233.121170 205.023849,231.906677 206.478867,230.787994 
	C222.877060,218.180344 240.504349,207.641647 259.619934,199.671417 
	C260.969086,199.108871 262.511810,199.010666 264.354065,198.691040 
	C264.743561,198.685516 265.053375,199.003601 265.210083,199.160858 
z"/>
</svg>