<svg version="1.1" id="Layer_1" xmlns="http://www.w3.org/2000/svg" xmlns:xlink="http://www.w3.org/1999/xlink" x="0px" y="0px"
	 width="100%" viewBox="0 0 496 304" enable-background="new 0 0 496 304" xml:space="preserve">
<path fill="#000000" opacity="1.000000" stroke="none" 
	d="
M497.000000,79.666664 
	C471.545471,80.731392 446.086609,81.338577 420.637543,82.226418 
	C390.533325,83.276657 360.438812,84.603363 330.336365,85.708786 
	C326.967682,85.832497 322.235199,86.623428 321.258301,82.606453 
	C320.287292,78.613785 323.129089,74.712387 325.811188,71.474815 
	C326.725708,70.370865 328.303833,70.681946 329.612244,70.736855 
	C351.221710,71.643715 372.830566,72.564445 394.438202,73.513252 
	C403.414520,73.907410 412.395294,74.087326 421.374542,74.541618 
	C443.476501,75.659843 465.610046,76.148026 487.728638,76.951218 
	C490.548035,77.053596 493.354065,77.523354 496.583130,77.911453 
	C497.000000,78.444443 497.000000,78.888893 497.000000,79.666664 
z"/>
<path fill="#000000" opacity="1.000000" stroke="none" 
	d="
M1.000000,236.375000 
	C16.167627,223.929871 32.537964,213.679367 50.070278,205.539566 
	C57.671646,202.010452 63.763237,198.863602 65.580734,189.461914 
	C66.842079,182.937134 73.452904,181.075928 81.305092,183.932480 
	C85.574089,185.485504 88.155823,184.864502 91.824890,181.990982 
	C107.347382,169.834183 124.474495,160.205673 142.432831,152.083572 
	C144.506500,151.145676 146.690308,150.131180 149.206131,150.909668 
	C149.965286,153.294556 147.931000,154.154587 146.705414,155.231125 
	C136.252640,164.412689 124.240898,171.290451 112.139580,177.938141 
	C104.160950,182.321075 96.091888,186.415329 87.063797,188.830673 
	C81.186508,190.403091 76.673286,195.948746 70.733223,198.238815 
	C63.339283,201.089401 59.367794,208.123795 52.877243,212.180038 
	C39.595947,220.480164 26.353607,228.793945 12.202373,235.560486 
	C8.871921,237.152954 5.353309,238.134308 1.376062,238.930939 
	C1.000000,238.250000 1.000000,237.500000 1.000000,236.375000 
z"/>
<path fill="#000000" opacity="1.000000" stroke="none" 
	d="
M295.409485,71.335678 
	C301.328705,76.389076 304.876526,82.600700 306.040833,89.802147 
	C306.790161,94.436996 304.831055,98.674934 300.696350,101.435715 
	C296.273041,104.389198 293.357300,108.386375 290.972931,113.156975 
	C282.633820,129.841721 274.137085,146.454346 265.317719,162.889069 
	C261.914490,169.230911 260.953888,174.933365 264.247406,181.726486 
	C267.936890,189.336304 265.435150,195.255524 256.766968,199.513687 
	C252.175095,201.769409 251.440598,204.398773 252.601944,208.816498 
	C253.992599,214.106583 254.024353,219.225403 250.279083,223.972717 
	C248.959717,225.645096 248.884903,228.333984 248.349365,230.584335 
	C245.459503,242.727234 235.820755,248.534424 223.818451,245.175247 
	C220.614014,244.278412 217.601685,243.554626 214.115341,243.855179 
	C208.955368,244.300018 205.009750,240.973038 201.538589,237.559753 
	C199.008453,235.071823 196.790024,234.402222 193.763885,236.678207 
	C192.061813,237.958389 189.975616,238.768005 187.991501,239.625351 
	C182.358688,242.059311 177.391754,241.463577 174.306030,236.359360 
	C169.089569,227.730606 161.726395,225.882782 152.330933,225.894287 
	C134.688507,225.915878 117.043556,224.935333 99.402687,224.288681 
	C95.845268,224.158295 92.507362,224.571075 89.175949,225.963821 
	C78.574799,230.395721 73.553879,228.698776 67.407524,218.899918 
	C60.837822,208.426132 61.108997,207.189590 71.121567,200.778992 
	C77.161247,196.912079 83.431419,193.483521 89.818703,190.220795 
	C92.868073,188.663101 94.738235,189.284164 96.584572,191.826416 
	C100.219002,196.830704 103.326019,202.158615 106.080971,207.667709 
	C107.869049,211.243362 110.375870,212.224564 114.188766,211.610199 
	C131.258530,208.859863 148.351456,206.252518 165.441589,203.629974 
	C168.089005,203.223709 169.793091,202.060516 171.160629,199.533554 
	C184.470200,174.940018 204.925110,162.147766 233.178268,162.724335 
	C236.662659,162.795441 239.093506,161.887054 241.287628,159.064590 
	C252.226974,144.992645 263.287018,131.013046 274.452545,117.119865 
	C276.350891,114.757751 276.435577,112.973923 274.871948,110.476646 
	C271.603210,105.256149 268.618042,99.858414 265.501129,94.542442 
	C263.228790,90.666946 263.847656,87.805557 267.979218,85.492599 
	C275.533752,81.263367 282.926819,76.745415 290.380371,72.336304 
	C291.834290,71.476242 293.279724,70.654892 295.409485,71.335678 
M225.655762,217.770370 
	C221.449615,219.994324 219.016861,223.467697 219.565521,228.231613 
	C220.013351,232.120117 222.562973,234.780029 226.327164,236.116287 
	C230.363739,237.549225 233.878464,236.541962 236.827316,233.624481 
	C239.851303,230.632675 240.548157,227.019241 238.828598,223.125229 
	C236.741165,218.398193 232.658798,216.616180 225.655762,217.770370 
z"/>
<path fill="#000000" opacity="1.000000" stroke="none" 
	d="
M353.412201,229.464081 
	C341.968445,229.988724 330.996429,230.596970 320.016205,230.947372 
	C302.537720,231.505127 285.051239,231.818069 267.574341,232.415283 
	C264.339233,232.525848 263.490082,231.333221 263.634521,228.387009 
	C263.979156,221.355118 267.796234,217.546844 274.840088,217.778030 
	C316.438538,219.143387 358.036224,220.533936 399.631683,221.987198 
	C413.104279,222.457916 426.569122,223.150238 440.038239,223.724106 
	C442.470306,223.827744 444.883881,223.918869 446.782776,226.806076 
	C415.815277,227.681381 384.847778,228.556686 353.412201,229.464081 
z"/>
<path fill="#000000" opacity="1.000000" stroke="none" 
	d="
M373.297974,156.344849 
	C359.189178,156.926437 345.554657,157.551788 331.914917,158.028061 
	C319.271698,158.469513 306.624298,158.817047 293.976074,159.077637 
	C287.153748,159.218185 285.982880,157.308746 288.639771,150.935699 
	C291.549225,143.956772 291.962555,143.850708 299.373413,144.434372 
	C308.331329,145.139877 317.328674,145.107330 326.307556,145.550873 
	C354.729675,146.954865 383.183105,147.711365 411.613678,148.963028 
	C426.907166,149.636353 442.185242,150.637070 457.499969,150.779755 
	C459.069183,150.794373 460.795654,150.510056 461.994507,153.511673 
	C432.586334,154.448975 403.178162,155.386261 373.297974,156.344849 
z"/>
<path fill="#000000" opacity="1.000000" stroke="none" 
	d="
M468.892944,100.869484 
	C476.788300,101.278481 484.199799,101.676231 491.824799,102.085442 
	C490.808899,104.603859 488.912781,104.115341 487.391907,104.184586 
	C473.088745,104.835884 458.785919,105.524147 444.476288,105.999245 
	C409.862091,107.148438 375.243927,108.177773 340.628265,109.284058 
	C334.804840,109.470177 328.986053,109.999657 323.164917,110.003181 
	C317.932495,110.006340 316.655121,107.907173 318.346741,102.983971 
	C321.037079,95.154182 321.865814,94.566849 330.221039,94.917976 
	C361.817993,96.245865 393.414612,97.582260 425.010529,98.934151 
	C439.477692,99.553146 453.942993,100.215530 468.892944,100.869484 
z"/>
<path fill="#000000" opacity="1.000000" stroke="none" 
	d="
M324.154327,120.692657 
	C354.709564,121.993301 384.781250,123.327263 414.856598,124.572853 
	C433.468414,125.343666 452.085602,125.986549 470.701080,126.667351 
	C472.644684,126.738434 474.593170,126.676910 477.116730,126.676910 
	C475.676086,129.595352 473.677582,128.982361 472.045807,129.163620 
	C457.132843,130.820190 442.127869,130.131424 427.168732,130.825409 
	C392.603119,132.428986 357.996887,133.153061 323.407898,134.259079 
	C317.757111,134.439774 312.108582,134.977814 306.462402,134.931976 
	C301.262024,134.889740 300.000702,132.739410 301.727539,127.871063 
	C304.432648,120.244812 305.609924,119.447937 313.724579,119.937111 
	C317.043518,120.137184 320.356567,120.435188 324.154327,120.692657 
z"/>
<path fill="#000000" opacity="1.000000" stroke="none" 
	d="
M366.245422,205.309082 
	C337.823792,206.283401 309.877228,207.244461 281.929779,208.178635 
	C280.104187,208.239639 278.246796,208.266251 276.448151,208.005692 
	C273.679718,207.604645 272.447144,206.155365 273.202057,203.106613 
	C275.100708,195.438980 277.254608,193.427841 284.998077,193.741089 
	C314.922272,194.951569 344.838257,196.363861 374.762024,197.586243 
	C395.712311,198.442047 416.669830,199.122940 437.625061,199.854355 
	C441.681580,199.995956 445.715240,200.181473 449.593445,201.390747 
	C449.588501,201.854156 449.583527,202.317551 449.578583,202.780960 
	C421.959137,203.617157 394.339722,204.453369 366.245422,205.309082 
z"/>
<path fill="#000000" opacity="1.000000" stroke="none" 
	d="
M311.020416,169.756378 
	C358.526947,171.785202 405.541595,173.804871 453.073792,175.846771 
	C451.680115,178.570297 449.702271,178.063843 448.071381,178.117294 
	C416.120239,179.164398 384.167145,180.151703 352.215790,181.193054 
	C329.249786,181.941544 306.285309,182.737747 283.321198,183.542191 
	C276.681793,183.774765 275.345062,181.675217 277.648499,175.425598 
	C279.515747,170.359528 282.426727,168.097366 288.092010,168.679214 
	C295.528961,169.442978 303.045990,169.427551 311.020416,169.756378 
z"/>
<path fill="#000000" opacity="1.000000" stroke="none" 
	d="
M226.878113,100.831039 
	C238.415314,94.125694 249.390259,87.098000 261.880646,83.106438 
	C264.037567,82.417145 264.531036,81.169052 264.718903,79.094078 
	C265.893494,66.120766 273.414062,61.451118 285.359467,66.372360 
	C287.708862,67.340271 289.090881,67.140602 291.068756,65.512192 
	C306.988159,52.405712 324.822388,42.404007 343.491516,33.832558 
	C345.664581,32.834835 348.035797,31.704079 350.825104,32.724037 
	C350.923645,35.735699 348.639069,37.178894 346.767059,38.555454 
	C330.483521,50.529427 313.589142,61.813515 294.529877,68.569595 
	C284.310364,72.192184 274.544830,77.151749 266.919098,83.563820 
	C254.519562,93.989914 240.985245,102.115944 227.268936,110.238564 
	C221.251785,113.801842 215.036942,117.045433 208.340302,119.208633 
	C206.804626,119.704704 205.318985,120.710976 203.562134,120.043770 
	C204.447327,115.391518 207.761948,112.653717 226.878113,100.831039 
z"/>
</svg>