<svg xmlns="http://www.w3.org/2000/svg" xmlns:xlink="http://www.w3.org/1999/xlink" width="500" zoomAndPan="magnify" viewBox="0 0 375 374.999991" height="500" preserveAspectRatio="xMidYMid meet" version="1.0"><defs><g/><clipPath id="dd0e134dbf"><path d="M 200 109.125 L 226 109.125 L 226 124 L 200 124 Z M 200 109.125 " clip-rule="nonzero"/></clipPath><clipPath id="7166ba84eb"><path d="M 115 124 L 208 124 L 208 190.875 L 115 190.875 Z M 115 124 " clip-rule="nonzero"/></clipPath><clipPath id="399faca8e6"><path d="M 213 123 L 281.953125 123 L 281.953125 130 L 213 130 Z M 213 123 " clip-rule="nonzero"/></clipPath><clipPath id="4c11775cf9"><path d="M 91.453125 173 L 116 173 L 116 188 L 91.453125 188 Z M 91.453125 173 " clip-rule="nonzero"/></clipPath></defs><g clip-path="url(#dd0e134dbf)"><path fill="#ffffff" d="M 208.019531 120.652344 C 212.515625 118.289062 216.863281 115.695312 221.054688 112.835938 C 222.582031 111.847656 223.953125 110.664062 225.097656 109.214844 C 222.734375 109.445312 220.636719 110.550781 218.578125 111.617188 C 213.507812 114.285156 208.550781 117.144531 203.902344 120.5 C 202.796875 121.300781 201.84375 122.253906 200.96875 123.28125 C 203.484375 123.015625 205.769531 121.792969 208.019531 120.652344 Z M 208.019531 120.652344 " fill-opacity="1" fill-rule="nonzero"/></g><path fill="#ffffff" d="M 200.96875 123.089844 C 199.441406 121.679688 196.773438 121.375 194.828125 121.949219 C 192.65625 122.976562 191.820312 126.140625 192.199219 128.238281 C 195.324219 126.980469 198.335938 125.1875 200.96875 123.089844 Z M 200.96875 123.089844 " fill-opacity="1" fill-rule="nonzero"/><g clip-path="url(#7166ba84eb)"><path fill="#ffffff" d="M 192.238281 168.832031 C 192.542969 166.46875 190.21875 164.601562 190.636719 162.238281 C 190.75 161.398438 191.171875 160.601562 191.550781 159.835938 C 195.25 152.632812 199.023438 145.464844 202.644531 138.222656 C 203.558594 135.859375 206.800781 135.480469 207.371094 132.886719 C 208.324219 130.21875 206.265625 127.894531 205.082031 125.722656 C 204.625 124.804688 203.597656 123.511719 202.492188 124.3125 C 199.136719 126.140625 195.820312 128.121094 192.582031 130.105469 C 191.550781 130.601562 191.933594 131.894531 192.390625 132.621094 C 193.839844 135.210938 195.402344 137.730469 196.886719 140.28125 C 191.894531 146.609375 186.9375 152.9375 181.945312 159.1875 C 171.15625 157.625 159.953125 164.296875 155.871094 174.359375 C 148.097656 175.503906 140.359375 176.839844 132.582031 178.058594 C 130.523438 175.125 129.304688 171.5 126.710938 168.984375 C 122.59375 170.664062 118.933594 173.332031 115.085938 175.542969 C 115.503906 178.285156 117.144531 180.917969 119.164062 182.785156 C 121.566406 184.730469 124.425781 182.824219 126.789062 182.023438 C 135.058594 182.25 143.332031 182.632812 151.601562 182.824219 C 152.632812 182.898438 153.660156 182.9375 154.578125 183.394531 C 156.671875 184.5 157.128906 187.472656 159.53125 188.199219 C 162.125 188.882812 164.371094 186.976562 166.507812 185.796875 C 168.71875 187.664062 171.042969 190.5625 174.285156 189.1875 C 176.953125 190.5625 180.460938 190.980469 182.9375 188.960938 C 185.070312 187.472656 185.757812 184.804688 185.871094 182.328125 C 188.769531 180.308594 187.089844 176.648438 186.710938 173.863281 C 188.84375 172.722656 191.667969 171.539062 192.238281 168.832031 Z M 182.632812 183.8125 C 182.402344 186.941406 178.097656 188.578125 175.886719 186.328125 C 173.558594 184.425781 174.398438 180.421875 177.179688 179.46875 C 179.886719 178.363281 183.128906 180.878906 182.632812 183.8125 Z M 182.632812 183.8125 " fill-opacity="1" fill-rule="nonzero"/></g><path fill="#ffffff" d="M 192.351562 128.425781 C 189.761719 128.734375 187.472656 130.027344 185.1875 131.210938 C 180.152344 133.878906 175.199219 136.777344 170.625 140.167969 C 169.671875 140.816406 168.910156 141.691406 168.261719 142.644531 C 173.027344 141.578125 177.144531 138.835938 181.375 136.46875 C 185.1875 134.03125 189.417969 131.972656 192.351562 128.425781 Z M 192.351562 128.425781 " fill-opacity="1" fill-rule="nonzero"/><path fill="#ffffff" d="M 131.058594 165.820312 C 135.9375 163.230469 140.738281 160.410156 145.277344 157.207031 C 146.417969 156.40625 147.449219 155.414062 148.324219 154.308594 C 145.734375 154.578125 143.445312 155.875 141.160156 157.015625 C 136.507812 159.457031 131.972656 162.125 127.703125 165.175781 C 126.40625 166.050781 125.226562 167.117188 124.273438 168.375 C 126.710938 168.070312 128.921875 166.925781 131.058594 165.820312 Z M 131.058594 165.820312 " fill-opacity="1" fill-rule="nonzero"/><path fill="#ffffff" d="M 124.347656 168.109375 C 122.59375 167.078125 120.382812 166.507812 118.363281 166.890625 C 115.734375 167.765625 115.65625 170.96875 114.894531 173.179688 C 115.238281 173.140625 115.960938 173.066406 116.304688 173.027344 C 119.089844 171.578125 121.910156 170.089844 124.347656 168.109375 Z M 124.347656 168.109375 " fill-opacity="1" fill-rule="nonzero"/><g clip-path="url(#399faca8e6)"><path fill="#ffffff" d="M 213.433594 128.3125 C 214.195312 129.457031 215.605469 129.074219 216.75 129.113281 L 282.046875 126.789062 L 215.375 123.96875 C 214.613281 125.378906 213.773438 126.75 213.433594 128.3125 Z M 213.433594 128.3125 " fill-opacity="1" fill-rule="nonzero"/></g><path fill="#ffffff" d="M 212.136719 137.613281 C 212.898438 138.757812 214.308594 138.375 215.453125 138.414062 L 280.75 136.089844 L 214.078125 133.269531 C 213.316406 134.679688 212.480469 136.050781 212.136719 137.613281 Z M 212.136719 137.613281 " fill-opacity="1" fill-rule="nonzero"/><path fill="#ffffff" d="M 196.46875 165.707031 C 197.230469 166.851562 198.640625 166.46875 199.785156 166.507812 L 265.082031 164.183594 L 198.414062 161.363281 C 197.652344 162.773438 196.8125 164.144531 196.46875 165.707031 Z M 196.46875 165.707031 " fill-opacity="1" fill-rule="nonzero"/><path fill="#ffffff" d="M 200.585938 156.367188 C 201.347656 157.511719 202.757812 157.132812 203.902344 157.167969 L 269.199219 154.84375 L 202.53125 152.023438 C 201.765625 153.394531 200.929688 154.804688 200.585938 156.367188 Z M 200.585938 156.367188 " fill-opacity="1" fill-rule="nonzero"/><path fill="#ffffff" d="M 195.171875 175.121094 C 195.933594 176.265625 197.347656 175.886719 198.488281 175.921875 L 263.785156 173.597656 L 197.078125 170.777344 C 196.316406 172.1875 195.476562 173.558594 195.171875 175.121094 Z M 195.171875 175.121094 " fill-opacity="1" fill-rule="nonzero"/><path fill="#ffffff" d="M 205.808594 147.105469 C 206.570312 148.25 207.980469 147.867188 209.125 147.90625 L 274.421875 145.582031 L 207.753906 142.761719 C 206.988281 144.171875 206.152344 145.542969 205.808594 147.105469 Z M 205.808594 147.105469 " fill-opacity="1" fill-rule="nonzero"/><g clip-path="url(#4c11775cf9)"><path fill="#ffffff" d="M 109.976562 175.464844 C 105.554688 177.675781 101.285156 180.191406 97.132812 182.898438 C 95.074219 184.308594 92.976562 185.644531 91.453125 187.625 C 93.511719 187.433594 95.378906 186.519531 97.207031 185.644531 C 101.324219 183.546875 105.328125 181.222656 109.253906 178.707031 C 111.503906 177.21875 113.789062 175.734375 115.582031 173.675781 C 113.523438 173.597656 111.730469 174.664062 109.976562 175.464844 Z M 109.976562 175.464844 " fill-opacity="1" fill-rule="nonzero"/></g><path fill="#ffffff" d="M 193.34375 180.003906 C 192.503906 181.640625 191.285156 183.28125 191.742188 185.1875 C 215.183594 184.539062 238.628906 183.28125 262.109375 182.859375 C 260.546875 182.59375 258.984375 182.367188 257.421875 182.328125 C 236.074219 181.601562 214.726562 180.6875 193.34375 180.003906 Z M 193.34375 180.003906 " fill-opacity="1" fill-rule="nonzero"/><g fill="#ffffff" fill-opacity="1"><g transform="translate(62.217651, 237.881689)"><g><path d="M 18.8125 -28.9375 L 30.796875 -1.453125 L 30.796875 0 L 27.078125 0 L 23.734375 -7.859375 L 7.984375 -7.859375 L 4.625 0 L 1.03125 0 L 1.03125 -1.453125 L 12.8125 -28.9375 Z M 9.46875 -11.375 L 22.203125 -11.375 L 16.203125 -25.421875 L 15.46875 -25.421875 Z M 9.46875 -11.375 "/></g></g></g><g fill="#ffffff" fill-opacity="1"><g transform="translate(94.052331, 237.881689)"><g><path d="M 7.4375 0 L 2.6875 -4.75 L 2.6875 -15.921875 L 7.4375 -20.671875 L 18.390625 -20.671875 L 23.15625 -15.921875 L 23.15625 -8.265625 L 6.40625 -8.265625 L 6.40625 -6.203125 L 9.09375 -3.515625 L 21.703125 -3.515625 L 21.703125 0 Z M 6.40625 -11.78125 L 19.4375 -11.78125 L 19.4375 -14.46875 L 16.75 -17.15625 L 9.09375 -17.15625 L 6.40625 -14.46875 Z M 6.40625 -11.78125 "/></g></g></g><g fill="#ffffff" fill-opacity="1"><g transform="translate(119.478732, 237.881689)"><g><path d="M 3.09375 0 L 3.09375 -20.671875 L 6 -20.671875 L 6 -19.015625 L 6.734375 -19.015625 L 8.71875 -20.671875 L 16.953125 -20.671875 L 16.953125 -17.15625 L 9.75 -17.15625 L 6.828125 -14.71875 L 6.828125 0 Z M 3.09375 0 "/></g></g></g><g fill="#ffffff" fill-opacity="1"><g transform="translate(136.222948, 237.881689)"><g><path d="M 3.09375 0 L 3.09375 -20.671875 L 6.828125 -20.671875 L 6.828125 0 Z M 2.890625 -24.8125 L 2.890625 -28.9375 L 7.03125 -28.9375 L 7.03125 -24.8125 Z M 2.890625 -24.8125 "/></g></g></g><g fill="#ffffff" fill-opacity="1"><g transform="translate(146.145445, 237.881689)"><g><path d="M 5.578125 0 L 2.0625 -3.515625 L 2.0625 -9.09375 L 6 -13.015625 L 17.984375 -13.015625 L 17.984375 -15.09375 L 15.921875 -17.15625 L 4.75 -17.15625 L 4.75 -20.671875 L 17.578125 -20.671875 L 21.703125 -16.53125 L 21.703125 0 L 18.8125 0 L 18.8125 -2.0625 L 18.0625 -2.0625 L 15.5 0 Z M 7.234375 -3.515625 L 14.46875 -3.515625 L 17.984375 -6.359375 L 17.984375 -9.515625 L 7.65625 -9.515625 L 5.78125 -7.65625 L 5.78125 -4.96875 Z M 7.234375 -3.515625 "/></g></g></g><g fill="#ffffff" fill-opacity="1"><g transform="translate(170.744976, 237.881689)"><g><path d="M 3.921875 0 L 3.921875 -25.421875 L -0.203125 -25.421875 L -0.203125 -28.9375 L 7.65625 -28.9375 L 7.65625 0 Z M 3.921875 0 "/></g></g></g><g fill="#ffffff" fill-opacity="1"><g transform="translate(181.701068, 237.881689)"><g/></g></g><g fill="#ffffff" fill-opacity="1"><g transform="translate(195.757937, 237.881689)"><g><path d="M 4.140625 0 L 4.140625 -28.9375 L 28.109375 -28.9375 L 28.109375 -25.421875 L 8.0625 -25.421875 L 8.0625 -16.328125 L 23.5625 -16.328125 L 23.5625 -12.8125 L 8.0625 -12.8125 L 8.0625 -3.515625 L 28.53125 -3.515625 L 28.53125 0 Z M 4.140625 0 "/></g></g></g><g fill="#ffffff" fill-opacity="1"><g transform="translate(225.938865, 237.881689)"><g><path d="M 5.578125 0 L 2.0625 -3.515625 L 2.0625 -9.09375 L 6 -13.015625 L 17.984375 -13.015625 L 17.984375 -15.09375 L 15.921875 -17.15625 L 4.75 -17.15625 L 4.75 -20.671875 L 17.578125 -20.671875 L 21.703125 -16.53125 L 21.703125 0 L 18.8125 0 L 18.8125 -2.0625 L 18.0625 -2.0625 L 15.5 0 Z M 7.234375 -3.515625 L 14.46875 -3.515625 L 17.984375 -6.359375 L 17.984375 -9.515625 L 7.65625 -9.515625 L 5.78125 -7.65625 L 5.78125 -4.96875 Z M 7.234375 -3.515625 "/></g></g></g><g fill="#ffffff" fill-opacity="1"><g transform="translate(250.538397, 237.881689)"><g><path d="M 4.140625 8.265625 L 4.140625 4.75 L 17.578125 4.75 L 19.015625 3.3125 L 19.015625 -1.453125 L 18.28125 -1.453125 L 16.53125 0 L 7.4375 0 L 2.6875 -4.75 L 2.6875 -15.921875 L 7.4375 -20.671875 L 22.734375 -20.671875 L 22.734375 4.75 L 19.21875 8.265625 Z M 9.09375 -3.515625 L 15.5 -3.515625 L 19.015625 -6.40625 L 19.015625 -17.15625 L 9.09375 -17.15625 L 6.40625 -14.46875 L 6.40625 -6.203125 Z M 9.09375 -3.515625 "/></g></g></g><g fill="#ffffff" fill-opacity="1"><g transform="translate(276.37825, 237.881689)"><g><path d="M 3.921875 0 L 3.921875 -25.421875 L -0.203125 -25.421875 L -0.203125 -28.9375 L 7.65625 -28.9375 L 7.65625 0 Z M 3.921875 0 "/></g></g></g><g fill="#ffffff" fill-opacity="1"><g transform="translate(287.334342, 237.881689)"><g><path d="M 7.4375 0 L 2.6875 -4.75 L 2.6875 -15.921875 L 7.4375 -20.671875 L 18.390625 -20.671875 L 23.15625 -15.921875 L 23.15625 -8.265625 L 6.40625 -8.265625 L 6.40625 -6.203125 L 9.09375 -3.515625 L 21.703125 -3.515625 L 21.703125 0 Z M 6.40625 -11.78125 L 19.4375 -11.78125 L 19.4375 -14.46875 L 16.75 -17.15625 L 9.09375 -17.15625 L 6.40625 -14.46875 Z M 6.40625 -11.78125 "/></g></g></g><g fill="#ffffff" fill-opacity="1"><g transform="translate(145.173575, 257.208631)"><g><path d="M 1.328125 0 L 1.328125 -9.296875 L 7.90625 -9.296875 L 9.765625 -7.4375 L 9.765625 -1.859375 L 7.90625 0 Z M 2.59375 -1.125 L 7.3125 -1.125 L 8.5 -2.328125 L 8.5 -6.96875 L 7.3125 -8.171875 L 2.59375 -8.171875 Z M 2.59375 -1.125 "/></g></g></g><g fill="#ffffff" fill-opacity="1"><g transform="translate(160.418541, 257.208631)"><g><path d="M 1.328125 0 L 1.328125 -9.296875 L 7.640625 -9.296875 L 9.359375 -7.578125 L 9.359375 -5.046875 L 7.640625 -3.328125 L 9.671875 -0.46875 L 9.671875 0 L 8.453125 0 L 6.109375 -3.328125 L 2.59375 -3.328125 L 2.59375 0 Z M 2.59375 -4.453125 L 7.046875 -4.453125 L 8.109375 -5.515625 L 8.109375 -7.109375 L 7.046875 -8.171875 L 2.59375 -8.171875 Z M 2.59375 -4.453125 "/></g></g></g><g fill="#ffffff" fill-opacity="1"><g transform="translate(175.30502, 257.208631)"><g><path d="M 2.921875 0 L 1.0625 -1.859375 L 1.0625 -7.4375 L 2.921875 -9.296875 L 8.109375 -9.296875 L 9.96875 -7.4375 L 9.96875 -1.859375 L 8.109375 0 Z M 3.515625 -1.125 L 7.5 -1.125 L 8.703125 -2.328125 L 8.703125 -6.96875 L 7.5 -8.171875 L 3.515625 -8.171875 L 2.328125 -6.96875 L 2.328125 -2.328125 Z M 3.515625 -1.125 "/></g></g></g><g fill="#ffffff" fill-opacity="1"><g transform="translate(190.749147, 257.208631)"><g><path d="M 1.328125 0 L 1.328125 -9.296875 L 3.59375 -9.296875 L 8.171875 -1.203125 L 8.40625 -1.203125 L 8.40625 -9.296875 L 9.625 -9.296875 L 9.625 0 L 7.375 0 L 2.796875 -8.109375 L 2.546875 -8.109375 L 2.546875 0 Z M 1.328125 0 "/></g></g></g><g fill="#ffffff" fill-opacity="1"><g transform="translate(206.126887, 257.208631)"><g><path d="M 1.328125 0 L 1.328125 -9.296875 L 9.03125 -9.296875 L 9.03125 -8.171875 L 2.59375 -8.171875 L 2.59375 -5.25 L 7.578125 -5.25 L 7.578125 -4.125 L 2.59375 -4.125 L 2.59375 -1.125 L 9.171875 -1.125 L 9.171875 0 Z M 1.328125 0 "/></g></g></g><g fill="#ffffff" fill-opacity="1"><g transform="translate(220.243281, 257.208631)"><g><path d="M 1 0 L 1 -1.125 L 6.84375 -1.125 L 7.640625 -1.921875 L 7.640625 -3.390625 L 6.84375 -4.1875 L 2.328125 -4.1875 L 0.859375 -5.640625 L 0.859375 -7.84375 L 2.328125 -9.296875 L 8.4375 -9.296875 L 8.4375 -8.171875 L 2.921875 -8.171875 L 2.125 -7.375 L 2.125 -6.109375 L 2.921875 -5.3125 L 7.4375 -5.3125 L 8.90625 -3.859375 L 8.90625 -1.46875 L 7.4375 0 Z M 1 0 "/></g></g></g></svg>