<svg xmlns="http://www.w3.org/2000/svg" xmlns:xlink="http://www.w3.org/1999/xlink" width="500" zoomAndPan="magnify" viewBox="0 0 375 374.999991" height="500" preserveAspectRatio="xMidYMid meet" version="1.0"><defs><g/><clipPath id="b37700f198"><path d="M 227 107 L 329.628906 107 L 329.628906 115 L 227 115 Z M 227 107 " clip-rule="nonzero"/></clipPath><clipPath id="ff7b390da6"><path d="M 45.378906 181 L 82 181 L 82 202 L 45.378906 202 Z M 45.378906 181 " clip-rule="nonzero"/></clipPath></defs><path fill="#000000" d="M 219.21875 102.097656 C 225.929688 98.570312 232.410156 94.707031 238.664062 90.441406 C 240.9375 88.964844 242.984375 87.203125 244.6875 85.042969 C 241.164062 85.382812 238.035156 87.03125 234.96875 88.625 C 227.40625 92.601562 220.015625 96.867188 213.082031 101.871094 C 211.433594 103.0625 210.011719 104.484375 208.703125 106.019531 C 212.457031 105.621094 215.867188 103.800781 219.21875 102.097656 Z M 219.21875 102.097656 " fill-opacity="1" fill-rule="nonzero"/><path fill="#000000" d="M 208.703125 105.734375 C 206.429688 103.632812 202.449219 103.175781 199.550781 104.03125 C 196.3125 105.566406 195.058594 110.28125 195.628906 113.410156 C 200.289062 111.535156 204.78125 108.863281 208.703125 105.734375 Z M 208.703125 105.734375 " fill-opacity="1" fill-rule="nonzero"/><path fill="#000000" d="M 195.683594 173.953125 C 196.140625 170.425781 192.671875 167.640625 193.296875 164.117188 C 193.46875 162.867188 194.09375 161.671875 194.660156 160.535156 C 200.175781 149.792969 205.804688 139.105469 211.203125 128.304688 C 212.570312 124.777344 217.402344 124.210938 218.253906 120.34375 C 219.675781 116.367188 216.605469 112.898438 214.84375 109.65625 C 214.160156 108.292969 212.625 106.359375 210.976562 107.554688 C 205.976562 110.28125 201.027344 113.238281 196.195312 116.195312 C 194.660156 116.933594 195.230469 118.867188 195.914062 119.945312 C 198.074219 123.8125 200.402344 127.566406 202.621094 131.375 C 195.171875 140.808594 187.785156 150.246094 180.335938 159.570312 C 164.25 157.238281 147.535156 167.1875 141.453125 182.195312 C 129.855469 183.902344 118.316406 185.890625 106.71875 187.710938 C 103.648438 183.332031 101.828125 177.929688 97.964844 174.179688 C 91.824219 176.679688 86.367188 180.660156 80.625 183.957031 C 81.25 188.050781 83.695312 191.972656 86.707031 194.757812 C 90.289062 197.65625 94.554688 194.816406 98.078125 193.621094 C 110.414062 193.960938 122.75 194.53125 135.085938 194.816406 C 136.621094 194.929688 138.15625 194.984375 139.519531 195.667969 C 142.644531 197.316406 143.328125 201.75 146.910156 202.832031 C 150.777344 203.855469 154.128906 201.011719 157.3125 199.25 C 160.609375 202.035156 164.078125 206.355469 168.910156 204.308594 C 172.890625 206.355469 178.121094 206.980469 181.816406 203.96875 C 184.996094 201.75 186.019531 197.769531 186.191406 194.078125 C 190.511719 191.0625 188.011719 185.605469 187.441406 181.457031 C 190.625 179.75 194.832031 177.988281 195.683594 173.953125 Z M 181.359375 196.292969 C 181.019531 200.953125 174.59375 203.398438 171.296875 200.046875 C 167.828125 197.203125 169.082031 191.234375 173.230469 189.8125 C 177.265625 188.164062 182.097656 191.917969 181.359375 196.292969 Z M 181.359375 196.292969 " fill-opacity="1" fill-rule="nonzero"/><path fill="#000000" d="M 195.855469 113.695312 C 191.992188 114.148438 188.578125 116.082031 185.167969 117.84375 C 177.664062 121.824219 170.273438 126.144531 163.453125 131.203125 C 162.03125 132.167969 160.894531 133.476562 159.929688 134.898438 C 167.035156 133.304688 173.171875 129.214844 179.484375 125.6875 C 185.167969 122.050781 191.480469 118.980469 195.855469 113.695312 Z M 195.855469 113.695312 " fill-opacity="1" fill-rule="nonzero"/><path fill="#000000" d="M 104.445312 169.460938 C 111.722656 165.59375 118.882812 161.390625 125.648438 156.613281 C 127.355469 155.417969 128.890625 153.941406 130.195312 152.292969 C 126.332031 152.691406 122.921875 154.625 119.507812 156.328125 C 112.574219 159.96875 105.808594 163.945312 99.441406 168.496094 C 97.507812 169.800781 95.746094 171.394531 94.324219 173.269531 C 97.964844 172.816406 101.261719 171.109375 104.445312 169.460938 Z M 104.445312 169.460938 " fill-opacity="1" fill-rule="nonzero"/><path fill="#000000" d="M 94.441406 172.871094 C 91.824219 171.335938 88.527344 170.484375 85.515625 171.054688 C 81.59375 172.359375 81.476562 177.136719 80.339844 180.433594 C 80.851562 180.375 81.933594 180.261719 82.445312 180.207031 C 86.59375 178.046875 90.800781 175.828125 94.441406 172.871094 Z M 94.441406 172.871094 " fill-opacity="1" fill-rule="nonzero"/><g clip-path="url(#b37700f198)"><path fill="#000000" d="M 227.292969 113.523438 C 228.429688 115.230469 230.53125 114.660156 232.238281 114.71875 L 329.617188 111.25 L 230.191406 107.042969 C 229.054688 109.144531 227.804688 111.191406 227.292969 113.523438 Z M 227.292969 113.523438 " fill-opacity="1" fill-rule="nonzero"/></g><path fill="#000000" d="M 225.359375 127.394531 C 226.496094 129.097656 228.601562 128.53125 230.304688 128.585938 L 327.6875 125.121094 L 228.257812 120.914062 C 227.121094 123.015625 225.871094 125.0625 225.359375 127.394531 Z M 225.359375 127.394531 " fill-opacity="1" fill-rule="nonzero"/><path fill="#000000" d="M 201.996094 169.289062 C 203.132812 170.996094 205.234375 170.425781 206.941406 170.484375 L 304.320312 167.015625 L 204.894531 162.808594 C 203.757812 164.914062 202.507812 166.960938 201.996094 169.289062 Z M 201.996094 169.289062 " fill-opacity="1" fill-rule="nonzero"/><path fill="#000000" d="M 208.136719 155.363281 C 209.273438 157.070312 211.375 156.5 213.082031 156.558594 L 310.460938 153.089844 L 211.035156 148.882812 C 209.898438 150.929688 208.648438 153.03125 208.136719 155.363281 Z M 208.136719 155.363281 " fill-opacity="1" fill-rule="nonzero"/><path fill="#000000" d="M 200.0625 183.332031 C 201.199219 185.039062 203.304688 184.46875 205.007812 184.527344 L 302.386719 181.058594 L 202.90625 176.851562 C 201.769531 178.953125 200.515625 181 200.0625 183.332031 Z M 200.0625 183.332031 " fill-opacity="1" fill-rule="nonzero"/><path fill="#000000" d="M 215.921875 141.550781 C 217.058594 143.253906 219.164062 142.6875 220.867188 142.742188 L 318.25 139.273438 L 218.824219 135.070312 C 217.683594 137.171875 216.433594 139.21875 215.921875 141.550781 Z M 215.921875 141.550781 " fill-opacity="1" fill-rule="nonzero"/><g clip-path="url(#ff7b390da6)"><path fill="#000000" d="M 73.007812 183.84375 C 66.414062 187.140625 60.046875 190.894531 53.851562 194.929688 C 50.78125 197.03125 47.652344 199.023438 45.378906 201.976562 C 48.449219 201.695312 51.234375 200.328125 53.964844 199.023438 C 60.105469 195.894531 66.074219 192.425781 71.929688 188.675781 C 75.28125 186.457031 78.691406 184.242188 81.363281 181.171875 C 78.296875 181.058594 75.625 182.648438 73.007812 183.84375 Z M 73.007812 183.84375 " fill-opacity="1" fill-rule="nonzero"/></g><path fill="#000000" d="M 197.332031 190.609375 C 196.082031 193.054688 194.265625 195.496094 194.945312 198.339844 C 229.90625 197.375 264.867188 195.496094 299.886719 194.871094 C 297.554688 194.472656 295.226562 194.132812 292.894531 194.078125 C 261.058594 192.996094 229.226562 191.632812 197.332031 190.609375 Z M 197.332031 190.609375 " fill-opacity="1" fill-rule="nonzero"/><g fill="#000000" fill-opacity="1"><g transform="translate(0.664107, 263.740623)"><g><path d="M 28.046875 -43.15625 L 45.9375 -2.15625 L 45.9375 0 L 40.390625 0 L 35.390625 -11.71875 L 11.90625 -11.71875 L 6.90625 0 L 1.546875 0 L 1.546875 -2.15625 L 19.109375 -43.15625 Z M 14.125 -16.953125 L 33.109375 -16.953125 L 24.171875 -37.921875 L 23.0625 -37.921875 Z M 14.125 -16.953125 "/></g></g></g><g fill="#000000" fill-opacity="1"><g transform="translate(48.139755, 263.740623)"><g><path d="M 11.09375 0 L 4 -7.09375 L 4 -23.734375 L 11.09375 -30.828125 L 27.4375 -30.828125 L 34.53125 -23.734375 L 34.53125 -12.328125 L 9.5625 -12.328125 L 9.5625 -9.25 L 13.5625 -5.234375 L 32.375 -5.234375 L 32.375 0 Z M 9.5625 -17.578125 L 28.984375 -17.578125 L 28.984375 -21.578125 L 24.96875 -25.59375 L 13.5625 -25.59375 L 9.5625 -21.578125 Z M 9.5625 -17.578125 "/></g></g></g><g fill="#000000" fill-opacity="1"><g transform="translate(86.058618, 263.740623)"><g><path d="M 4.625 0 L 4.625 -30.828125 L 8.9375 -30.828125 L 8.9375 -28.359375 L 10.046875 -28.359375 L 13.015625 -30.828125 L 25.28125 -30.828125 L 25.28125 -25.59375 L 14.546875 -25.59375 L 10.171875 -21.953125 L 10.171875 0 Z M 4.625 0 "/></g></g></g><g fill="#000000" fill-opacity="1"><g transform="translate(111.029577, 263.740623)"><g><path d="M 4.625 0 L 4.625 -30.828125 L 10.171875 -30.828125 L 10.171875 0 Z M 4.3125 -37 L 4.3125 -43.15625 L 10.484375 -43.15625 L 10.484375 -37 Z M 4.3125 -37 "/></g></g></g><g fill="#000000" fill-opacity="1"><g transform="translate(125.827179, 263.740623)"><g><path d="M 8.328125 0 L 3.078125 -5.234375 L 3.078125 -13.5625 L 8.9375 -19.421875 L 26.828125 -19.421875 L 26.828125 -22.5 L 23.734375 -25.59375 L 7.09375 -25.59375 L 7.09375 -30.828125 L 26.203125 -30.828125 L 32.375 -24.65625 L 32.375 0 L 28.046875 0 L 28.046875 -3.078125 L 26.9375 -3.078125 L 23.125 0 Z M 10.796875 -5.234375 L 21.578125 -5.234375 L 26.828125 -9.5 L 26.828125 -14.1875 L 11.40625 -14.1875 L 8.625 -11.40625 L 8.625 -7.40625 Z M 10.796875 -5.234375 "/></g></g></g><g fill="#000000" fill-opacity="1"><g transform="translate(162.512915, 263.740623)"><g><path d="M 5.859375 0 L 5.859375 -37.921875 L -0.3125 -37.921875 L -0.3125 -43.15625 L 11.40625 -43.15625 L 11.40625 0 Z M 5.859375 0 "/></g></g></g><g fill="#000000" fill-opacity="1"><g transform="translate(178.851937, 263.740623)"><g/></g></g><g fill="#000000" fill-opacity="1"><g transform="translate(199.815206, 263.740623)"><g><path d="M 6.171875 0 L 6.171875 -43.15625 L 41.921875 -43.15625 L 41.921875 -37.921875 L 12.015625 -37.921875 L 12.015625 -24.359375 L 35.140625 -24.359375 L 35.140625 -19.109375 L 12.015625 -19.109375 L 12.015625 -5.234375 L 42.546875 -5.234375 L 42.546875 0 Z M 6.171875 0 "/></g></g></g><g fill="#000000" fill-opacity="1"><g transform="translate(244.824583, 263.740623)"><g><path d="M 8.328125 0 L 3.078125 -5.234375 L 3.078125 -13.5625 L 8.9375 -19.421875 L 26.828125 -19.421875 L 26.828125 -22.5 L 23.734375 -25.59375 L 7.09375 -25.59375 L 7.09375 -30.828125 L 26.203125 -30.828125 L 32.375 -24.65625 L 32.375 0 L 28.046875 0 L 28.046875 -3.078125 L 26.9375 -3.078125 L 23.125 0 Z M 10.796875 -5.234375 L 21.578125 -5.234375 L 26.828125 -9.5 L 26.828125 -14.1875 L 11.40625 -14.1875 L 8.625 -11.40625 L 8.625 -7.40625 Z M 10.796875 -5.234375 "/></g></g></g><g fill="#000000" fill-opacity="1"><g transform="translate(281.510319, 263.740623)"><g><path d="M 6.171875 12.328125 L 6.171875 7.09375 L 26.203125 7.09375 L 28.359375 4.9375 L 28.359375 -2.15625 L 27.25 -2.15625 L 24.65625 0 L 11.09375 0 L 4 -7.09375 L 4 -23.734375 L 11.09375 -30.828125 L 33.90625 -30.828125 L 33.90625 7.09375 L 28.671875 12.328125 Z M 13.5625 -5.234375 L 23.125 -5.234375 L 28.359375 -9.5625 L 28.359375 -25.59375 L 13.5625 -25.59375 L 9.5625 -21.578125 L 9.5625 -9.25 Z M 13.5625 -5.234375 "/></g></g></g><g fill="#000000" fill-opacity="1"><g transform="translate(320.04577, 263.740623)"><g><path d="M 5.859375 0 L 5.859375 -37.921875 L -0.3125 -37.921875 L -0.3125 -43.15625 L 11.40625 -43.15625 L 11.40625 0 Z M 5.859375 0 "/></g></g></g><g fill="#000000" fill-opacity="1"><g transform="translate(336.384793, 263.740623)"><g><path d="M 11.09375 0 L 4 -7.09375 L 4 -23.734375 L 11.09375 -30.828125 L 27.4375 -30.828125 L 34.53125 -23.734375 L 34.53125 -12.328125 L 9.5625 -12.328125 L 9.5625 -9.25 L 13.5625 -5.234375 L 32.375 -5.234375 L 32.375 0 Z M 9.5625 -17.578125 L 28.984375 -17.578125 L 28.984375 -21.578125 L 24.96875 -25.59375 L 13.5625 -25.59375 L 9.5625 -21.578125 Z M 9.5625 -17.578125 "/></g></g></g><g fill="#000000" fill-opacity="1"><g transform="translate(124.377814, 292.563263)"><g><path d="M 1.984375 0 L 1.984375 -13.875 L 11.78125 -13.875 L 14.5625 -11.09375 L 14.5625 -2.78125 L 11.78125 0 Z M 3.859375 -1.6875 L 10.890625 -1.6875 L 12.6875 -3.46875 L 12.6875 -10.40625 L 10.890625 -12.1875 L 3.859375 -12.1875 Z M 3.859375 -1.6875 "/></g></g></g><g fill="#000000" fill-opacity="1"><g transform="translate(147.112913, 292.563263)"><g><path d="M 1.984375 0 L 1.984375 -13.875 L 11.390625 -13.875 L 13.96875 -11.296875 L 13.96875 -7.53125 L 11.390625 -4.953125 L 14.421875 -0.6875 L 14.421875 0 L 12.59375 0 L 9.109375 -4.953125 L 3.859375 -4.953125 L 3.859375 0 Z M 3.859375 -6.640625 L 10.5 -6.640625 L 12.078125 -8.21875 L 12.078125 -10.59375 L 10.5 -12.1875 L 3.859375 -12.1875 Z M 3.859375 -6.640625 "/></g></g></g><g fill="#000000" fill-opacity="1"><g transform="translate(169.313394, 292.563263)"><g><path d="M 4.359375 0 L 1.578125 -2.78125 L 1.578125 -11.09375 L 4.359375 -13.875 L 12.078125 -13.875 L 14.859375 -11.09375 L 14.859375 -2.78125 L 12.078125 0 Z M 5.25 -1.6875 L 11.1875 -1.6875 L 12.984375 -3.46875 L 12.984375 -10.40625 L 11.1875 -12.1875 L 5.25 -12.1875 L 3.46875 -10.40625 L 3.46875 -3.46875 Z M 5.25 -1.6875 "/></g></g></g><g fill="#000000" fill-opacity="1"><g transform="translate(192.345507, 292.563263)"><g><path d="M 1.984375 0 L 1.984375 -13.875 L 5.34375 -13.875 L 12.1875 -1.78125 L 12.546875 -1.78125 L 12.546875 -13.875 L 14.359375 -13.875 L 14.359375 0 L 11 0 L 4.15625 -12.078125 L 3.796875 -12.078125 L 3.796875 0 Z M 1.984375 0 "/></g></g></g><g fill="#000000" fill-opacity="1"><g transform="translate(215.278614, 292.563263)"><g><path d="M 1.984375 0 L 1.984375 -13.875 L 13.46875 -13.875 L 13.46875 -12.1875 L 3.859375 -12.1875 L 3.859375 -7.828125 L 11.296875 -7.828125 L 11.296875 -6.140625 L 3.859375 -6.140625 L 3.859375 -1.6875 L 13.671875 -1.6875 L 13.671875 0 Z M 1.984375 0 "/></g></g></g><g fill="#000000" fill-opacity="1"><g transform="translate(236.330655, 292.563263)"><g><path d="M 1.484375 0 L 1.484375 -1.6875 L 10.203125 -1.6875 L 11.390625 -2.875 L 11.390625 -5.046875 L 10.203125 -6.234375 L 3.46875 -6.234375 L 1.28125 -8.421875 L 1.28125 -11.6875 L 3.46875 -13.875 L 12.578125 -13.875 L 12.578125 -12.1875 L 4.359375 -12.1875 L 3.171875 -11 L 3.171875 -9.109375 L 4.359375 -7.921875 L 11.09375 -7.921875 L 13.28125 -5.75 L 13.28125 -2.171875 L 11.09375 0 Z M 1.484375 0 "/></g></g></g></svg>