<svg version="1.1" id="Layer_1" xmlns="http://www.w3.org/2000/svg" xmlns:xlink="http://www.w3.org/1999/xlink" x="0px" y="0px"
	 width="100%" viewBox="0 0 500 215" enable-background="new 0 0 500 215" xml:space="preserve">
<path fill="#010101" opacity="1.000000" stroke="none" 
	d="
M351.000000,1.000007 
	C400.965424,1.000000 450.930847,1.000000 500.948120,1.000000 
	C500.948120,72.582497 500.948120,144.165039 500.948120,216.000000 
	C411.979279,216.000000 322.958282,216.000000 233.151840,215.690094 
	C232.689880,215.044861 232.963791,214.493073 233.344162,214.405899 
	C242.753433,212.249573 247.072342,205.844513 248.371887,196.753159 
	C248.593994,195.199341 249.171432,193.471298 250.149475,192.292252 
	C253.226837,188.582520 253.413498,184.424118 252.630295,180.026199 
	C252.112244,177.117157 251.491318,174.226471 250.928162,171.386597 
	C252.567963,170.484940 253.870239,169.768463 255.172882,169.052612 
	C265.899109,163.158188 267.380585,159.383545 262.570587,148.192612 
	C260.522278,143.427048 261.078857,139.250534 263.350281,134.867310 
	C272.132202,117.920586 280.928070,100.979530 289.501007,83.926918 
	C292.306061,78.347298 295.439178,73.371948 300.721832,69.658714 
	C305.815643,66.078209 307.027283,60.793564 304.536072,55.027462 
	C302.901215,51.243500 300.591827,47.742905 298.490082,44.170990 
	C296.382599,40.589306 293.694244,40.215649 290.131165,42.409264 
	C283.059479,46.762917 275.808380,50.824120 268.662628,55.058853 
	C263.943909,57.855286 263.561768,59.325100 266.372833,64.221466 
	C269.515594,69.695549 272.937012,75.017685 275.864899,80.601151 
	C276.556335,81.919731 276.429871,84.540543 275.544403,85.680489 
	C263.906616,100.662773 252.123489,115.534126 240.176010,130.270523 
	C239.093185,131.606110 236.572006,132.563324 234.806808,132.439697 
	C208.719437,130.612488 182.560059,145.817596 171.291382,169.334595 
	C170.490189,171.006607 168.273361,172.769043 166.474518,173.074493 
	C149.750351,175.914246 132.889557,178.015778 116.254097,181.278305 
	C109.801826,182.543732 107.032303,180.458893 104.387962,175.223419 
	C101.432106,169.371170 97.638840,163.941879 93.795525,157.649963 
	C85.195465,162.677399 77.444305,167.127762 69.774727,171.714569 
	C61.927197,176.407822 61.778393,177.209061 66.410942,185.425919 
	C66.981918,186.438675 67.555794,187.454041 68.199081,188.421112 
	C74.183052,197.416962 78.811584,198.699387 88.961769,194.761841 
	C91.807030,193.658066 95.038841,192.964920 98.073074,193.029922 
	C116.722321,193.429291 135.363297,194.394180 154.012207,194.549866 
	C162.637970,194.621887 169.366486,196.528427 174.148834,204.466019 
	C177.389938,209.845459 182.316956,210.619492 188.141281,208.056503 
	C191.452728,206.599335 194.578232,204.719620 198.083054,202.874603 
	C199.855576,204.508972 201.421524,206.687973 203.545883,207.749405 
	C207.278061,209.614197 211.262924,211.145859 215.305695,212.172104 
	C220.179108,213.409195 225.223251,213.973602 230.184647,214.877869 
	C230.191071,214.879044 230.064484,215.609955 230.000000,216.000000 
	C153.708939,216.000000 77.417885,216.000000 1.063415,216.000000 
	C1.063415,144.415344 1.063415,72.830627 1.063415,1.000000 
	C116.020775,1.000000 231.041733,1.000000 346.841675,1.306235 
	C347.442627,1.885946 347.325043,2.314238 347.077850,2.410804 
	C329.465729,9.291550 313.638123,19.369331 298.073273,29.885246 
	C294.896057,32.031818 292.116028,34.766235 289.152893,37.229668 
	C289.401917,37.612827 289.650940,37.995983 289.899963,38.379139 
	C291.943024,37.837669 294.218842,37.703907 295.992920,36.691212 
	C312.408173,27.320791 328.811249,17.922569 345.013184,8.191564 
	C347.537842,6.675226 349.030273,3.440256 351.000000,1.000007 
M86.789330,156.816315 
	C91.193481,155.493729 96.015671,154.914520 99.926750,152.715118 
	C114.083359,144.754227 127.997246,136.352493 141.848969,127.866119 
	C144.772446,126.075020 147.045059,123.221535 149.617554,120.857552 
	C149.274719,120.313072 148.931885,119.768593 148.589050,119.224113 
	C141.346039,122.732880 133.941254,125.946785 126.894394,129.813080 
	C113.104187,137.379166 98.939423,144.452682 87.784508,155.996536 
	C87.496155,156.294922 86.607788,156.013535 85.590279,155.391464 
	C72.351898,149.696335 67.034637,152.213913 63.528145,165.865311 
	C63.256279,166.923721 63.158451,168.026840 62.831886,170.004578 
	C71.862923,166.916611 79.193115,162.427658 86.789330,156.816315 
M437.796936,146.944382 
	C441.704773,146.758408 445.612610,146.572433 449.520477,146.386475 
	C449.518372,145.974548 449.516296,145.562637 449.514221,145.150726 
	C445.320526,145.150726 441.126831,145.150726 436.021973,145.059982 
	C386.748657,142.987106 337.469208,141.041443 288.210266,138.670380 
	C282.454315,138.393311 279.835876,140.265839 278.011200,145.218597 
	C275.910980,150.919373 276.514923,152.198074 282.525726,152.048111 
	C293.018799,151.786316 303.508331,151.376846 313.998688,151.010406 
	C354.960693,149.579559 395.922455,148.141312 437.796936,146.944382 
M433.128448,195.397659 
	C436.590271,195.397659 440.052124,195.397659 443.513947,195.397659 
	C442.484772,194.194305 441.423492,193.930618 440.353210,193.886719 
	C420.384491,193.067703 400.416931,192.215607 380.444763,191.489426 
	C343.990417,190.163971 307.533600,188.904892 271.075439,187.688950 
	C269.922821,187.650497 268.055054,188.063614 267.694489,188.823318 
	C265.942261,192.515320 264.590485,196.397400 262.788910,200.998779 
	C320.370117,199.109268 376.281647,197.274551 433.128448,195.397659 
M323.317749,126.613243 
	C366.982391,125.052719 410.647064,123.492195 454.311707,121.931671 
	C453.508606,120.968010 452.708923,120.924004 451.908813,120.888855 
	C401.009644,118.653648 350.103363,116.559395 299.220520,113.999779 
	C293.144562,113.694130 290.605804,115.805260 288.787384,120.917931 
	C286.814880,126.463760 287.547241,127.844963 293.404236,127.667313 
	C303.055847,127.374535 312.705109,127.003006 323.317749,126.613243 
M436.519684,171.130280 
	C435.897552,170.741531 435.290253,170.040146 434.651123,170.009842 
	C419.506989,169.291672 404.359894,168.635361 389.212402,167.988739 
	C354.589691,166.510818 319.964935,165.079056 285.344666,163.546417 
	C277.444763,163.196671 277.451538,163.043579 274.534637,170.271301 
	C272.426727,175.494461 273.224274,176.894775 278.819489,176.813828 
	C287.147247,176.693359 295.471313,176.302551 303.796234,176.005844 
	C347.754272,174.439117 391.712097,172.865814 436.519684,171.130280 
M336.485748,53.857624 
	C385.570618,52.021923 434.655487,50.186222 483.740326,48.350521 
	C483.021423,47.139969 482.295868,46.997578 481.565643,46.967274 
	C432.821228,44.944389 384.077454,42.905407 335.330902,40.935585 
	C324.644409,40.503750 324.319427,40.852623 321.133453,51.345760 
	C321.094482,51.474152 321.207306,51.648651 321.249268,51.801628 
	C321.215210,52.296833 321.181122,52.792038 321.147034,53.287239 
	C325.932373,53.486805 330.717712,53.686375 336.485748,53.857624 
M410.215210,68.476303 
	C383.114319,67.316139 356.004181,66.325211 328.920471,64.849724 
	C323.648804,64.562531 321.135468,66.304474 319.333099,70.901367 
	C316.818787,77.314072 317.454956,78.434715 324.478455,78.203140 
	C358.576874,77.078827 392.676300,75.984489 426.773376,74.820633 
	C443.706696,74.242645 460.635712,73.537987 477.566681,72.890633 
	C477.580292,72.436012 477.593903,71.981392 477.607483,71.526772 
	C455.457031,70.534882 433.306580,69.542984 410.215210,68.476303 
M344.553680,102.027542 
	C383.184998,100.677567 421.816345,99.327591 460.447662,97.977615 
	C457.574341,96.902725 454.717041,96.157158 451.832214,96.028389 
	C406.235413,93.993156 360.636169,92.010612 315.034637,90.083115 
	C304.657104,89.644470 304.382874,89.951836 301.329010,99.968414 
	C301.187531,100.432419 301.211578,100.946892 301.039612,102.538986 
	C315.294434,104.104851 329.446655,102.201355 344.553680,102.027542 
M58.116787,176.572845 
	C59.893913,174.956024 61.671040,173.339203 64.016541,171.205292 
	C52.563236,171.344452 7.679110,197.739243 1.658475,207.991730 
	C22.669596,200.525742 40.266228,189.062225 58.116787,176.572845 
M214.706223,85.195793 
	C232.048706,76.098755 249.715744,67.498749 265.108734,53.188068 
	C253.440979,53.437607 208.420792,80.174248 203.323502,89.511993 
	C207.246109,88.056007 210.635452,86.797958 214.706223,85.195793 
M278.493866,44.984501 
	C281.663696,42.814941 284.833557,40.645382 288.153137,38.373352 
	C282.474670,34.074677 274.677917,33.233345 270.588135,36.156849 
	C266.531372,39.056740 264.373810,45.804188 266.000824,51.531631 
	C270.016602,49.435513 273.936249,47.389561 278.493866,44.984501 
z"/>
<path fill="#FDFDFD" opacity="1.000000" stroke="none" 
	d="
M230.375000,216.000000 
	C230.064484,215.609955 230.191071,214.879044 230.184647,214.877869 
	C225.223251,213.973602 220.179108,213.409195 215.305695,212.172104 
	C211.262924,211.145859 207.278061,209.614197 203.545883,207.749405 
	C201.421524,206.687973 199.855576,204.508972 198.083054,202.874603 
	C194.578232,204.719620 191.452728,206.599335 188.141281,208.056503 
	C182.316956,210.619492 177.389938,209.845459 174.148834,204.466019 
	C169.366486,196.528427 162.637970,194.621887 154.012207,194.549866 
	C135.363297,194.394180 116.722321,193.429291 98.073074,193.029922 
	C95.038841,192.964920 91.807030,193.658066 88.961769,194.761841 
	C78.811584,198.699387 74.183052,197.416962 68.199081,188.421112 
	C67.555794,187.454041 66.981918,186.438675 66.410942,185.425919 
	C61.778393,177.209061 61.927197,176.407822 69.774727,171.714569 
	C77.444305,167.127762 85.195465,162.677399 93.795525,157.649963 
	C97.638840,163.941879 101.432106,169.371170 104.387962,175.223419 
	C107.032303,180.458893 109.801826,182.543732 116.254097,181.278305 
	C132.889557,178.015778 149.750351,175.914246 166.474518,173.074493 
	C168.273361,172.769043 170.490189,171.006607 171.291382,169.334595 
	C182.560059,145.817596 208.719437,130.612488 234.806808,132.439697 
	C236.572006,132.563324 239.093185,131.606110 240.176010,130.270523 
	C252.123489,115.534126 263.906616,100.662773 275.544403,85.680489 
	C276.429871,84.540543 276.556335,81.919731 275.864899,80.601151 
	C272.937012,75.017685 269.515594,69.695549 266.372833,64.221466 
	C263.561768,59.325100 263.943909,57.855286 268.662628,55.058853 
	C275.808380,50.824120 283.059479,46.762917 290.131165,42.409264 
	C293.694244,40.215649 296.382599,40.589306 298.490082,44.170990 
	C300.591827,47.742905 302.901215,51.243500 304.536072,55.027462 
	C307.027283,60.793564 305.815643,66.078209 300.721832,69.658714 
	C295.439178,73.371948 292.306061,78.347298 289.501007,83.926918 
	C280.928070,100.979530 272.132202,117.920586 263.350281,134.867310 
	C261.078857,139.250534 260.522278,143.427048 262.570587,148.192612 
	C267.380585,159.383545 265.899109,163.158188 255.172882,169.052612 
	C253.870239,169.768463 252.567963,170.484940 250.928162,171.386597 
	C251.491318,174.226471 252.112244,177.117157 252.630295,180.026199 
	C253.413498,184.424118 253.226837,188.582520 250.149475,192.292252 
	C249.171432,193.471298 248.593994,195.199341 248.371887,196.753159 
	C247.072342,205.844513 242.753433,212.249573 233.344162,214.405899 
	C232.963791,214.493073 232.689880,215.044861 232.683182,215.690094 
	C232.250000,216.000000 231.500000,216.000000 230.375000,216.000000 
M239.242294,191.713501 
	C238.094635,190.316788 237.141876,188.676544 235.760910,187.571350 
	C232.322189,184.819260 228.495071,184.494690 224.607941,186.680023 
	C220.599686,188.933456 218.781113,192.485046 219.014313,197.014282 
	C219.244476,201.484390 221.842346,204.281281 225.798187,206.016266 
	C232.830658,209.100601 242.839294,202.560287 239.242294,191.713501 
z"/>
<path fill="#F5F5F5" opacity="1.000000" stroke="none" 
	d="
M350.600037,1.000007 
	C349.030273,3.440256 347.537842,6.675226 345.013184,8.191564 
	C328.811249,17.922569 312.408173,27.320791 295.992920,36.691212 
	C294.218842,37.703907 291.943024,37.837669 289.899963,38.379139 
	C289.650940,37.995983 289.401917,37.612827 289.152893,37.229668 
	C292.116028,34.766235 294.896057,32.031818 298.073273,29.885246 
	C313.638123,19.369331 329.465729,9.291550 347.077850,2.410804 
	C347.325043,2.314238 347.442627,1.885946 347.310364,1.306235 
	C348.066681,1.000000 349.133331,1.000000 350.600037,1.000007 
z"/>
<path fill="#F7F7F7" opacity="1.000000" stroke="none" 
	d="
M432.660828,195.418747 
	C376.281647,197.274551 320.370117,199.109268 262.788910,200.998779 
	C264.590485,196.397400 265.942261,192.515320 267.694489,188.823318 
	C268.055054,188.063614 269.922821,187.650497 271.075439,187.688950 
	C307.533600,188.904892 343.990417,190.163971 380.444763,191.489426 
	C400.416931,192.215607 420.384491,193.067703 440.353210,193.886719 
	C441.423492,193.930618 442.484772,194.194305 443.513947,195.397659 
	C440.052124,195.397659 436.590271,195.397659 432.660828,195.418747 
z"/>
<path fill="#F6F6F6" opacity="1.000000" stroke="none" 
	d="
M322.836548,126.638962 
	C312.705109,127.003006 303.055847,127.374535 293.404236,127.667313 
	C287.547241,127.844963 286.814880,126.463760 288.787384,120.917931 
	C290.605804,115.805260 293.144562,113.694130 299.220520,113.999779 
	C350.103363,116.559395 401.009644,118.653648 451.908813,120.888855 
	C452.708923,120.924004 453.508606,120.968010 454.311707,121.931671 
	C410.647064,123.492195 366.982391,125.052719 322.836548,126.638962 
z"/>
<path fill="#F6F6F6" opacity="1.000000" stroke="none" 
	d="
M436.094849,171.212524 
	C391.712097,172.865814 347.754272,174.439117 303.796234,176.005844 
	C295.471313,176.302551 287.147247,176.693359 278.819489,176.813828 
	C273.224274,176.894775 272.426727,175.494461 274.534637,170.271301 
	C277.451538,163.043579 277.444763,163.196671 285.344666,163.546417 
	C319.964935,165.079056 354.589691,166.510818 389.212402,167.988739 
	C404.359894,168.635361 419.506989,169.291672 434.651123,170.009842 
	C435.290253,170.040146 435.897552,170.741531 436.094849,171.212524 
z"/>
<path fill="#F7F7F7" opacity="1.000000" stroke="none" 
	d="
M335.994385,53.871780 
	C330.717712,53.686375 325.932373,53.486805 321.147034,53.287239 
	C321.181122,52.792038 321.215210,52.296833 321.249268,51.801628 
	C321.207306,51.648651 321.094482,51.474152 321.133453,51.345760 
	C324.319427,40.852623 324.644409,40.503750 335.330902,40.935585 
	C384.077454,42.905407 432.821228,44.944389 481.565643,46.967274 
	C482.295868,46.997578 483.021423,47.139969 483.740326,48.350521 
	C434.655487,50.186222 385.570618,52.021923 335.994385,53.871780 
z"/>
<path fill="#F7F7F7" opacity="1.000000" stroke="none" 
	d="
M436.884308,146.705826 
	C395.922455,148.141312 354.960693,149.579559 313.998688,151.010406 
	C303.508331,151.376846 293.018799,151.786316 282.525726,152.048111 
	C276.514923,152.198074 275.910980,150.919373 278.011200,145.218597 
	C279.835876,140.265839 282.454315,138.393311 288.210266,138.670380 
	C337.469208,141.041443 386.748657,142.987106 436.466034,145.366547 
	C436.901520,146.017349 436.892914,146.361588 436.884308,146.705826 
z"/>
<path fill="#F7F7F7" opacity="1.000000" stroke="none" 
	d="
M410.685669,68.513695 
	C433.306580,69.542984 455.457031,70.534882 477.607483,71.526772 
	C477.593903,71.981392 477.580292,72.436012 477.566681,72.890633 
	C460.635712,73.537987 443.706696,74.242645 426.773376,74.820633 
	C392.676300,75.984489 358.576874,77.078827 324.478455,78.203140 
	C317.454956,78.434715 316.818787,77.314072 319.333099,70.901367 
	C321.135468,66.304474 323.648804,64.562531 328.920471,64.849724 
	C356.004181,66.325211 383.114319,67.316139 410.685669,68.513695 
z"/>
<path fill="#F7F7F7" opacity="1.000000" stroke="none" 
	d="
M344.063782,102.037498 
	C329.446655,102.201355 315.294434,104.104851 301.039612,102.538986 
	C301.211578,100.946892 301.187531,100.432419 301.329010,99.968414 
	C304.382874,89.951836 304.657104,89.644470 315.034637,90.083115 
	C360.636169,92.010612 406.235413,93.993156 451.832214,96.028389 
	C454.717041,96.157158 457.574341,96.902725 460.447662,97.977615 
	C421.816345,99.327591 383.184998,100.677567 344.063782,102.037498 
z"/>
<path fill="#F4F4F4" opacity="1.000000" stroke="none" 
	d="
M85.999245,156.002518 
	C86.607788,156.013535 87.496155,156.294922 87.784508,155.996536 
	C98.939423,144.452682 113.104187,137.379166 126.894394,129.813080 
	C133.941254,125.946785 141.346039,122.732880 148.589050,119.224113 
	C148.931885,119.768593 149.274719,120.313072 149.617554,120.857552 
	C147.045059,123.221535 144.772446,126.075020 141.848969,127.866119 
	C127.997246,136.352493 114.083359,144.754227 99.926750,152.715118 
	C96.015671,154.914520 91.193481,155.493729 86.389687,156.642349 
	C85.990044,156.468384 85.999245,156.002518 85.999245,156.002518 
z"/>
<path fill="#F5F5F5" opacity="1.000000" stroke="none" 
	d="
M57.840294,176.808838 
	C40.266228,189.062225 22.669596,200.525742 1.658475,207.991730 
	C7.679110,197.739243 52.563236,171.344452 64.016541,171.205292 
	C61.671040,173.339203 59.893913,174.956024 57.840294,176.808838 
z"/>
<path fill="#F5F5F5" opacity="1.000000" stroke="none" 
	d="
M214.365509,85.367851 
	C210.635452,86.797958 207.246109,88.056007 203.323502,89.511993 
	C208.420792,80.174248 253.440979,53.437607 265.108734,53.188068 
	C249.715744,67.498749 232.048706,76.098755 214.365509,85.367851 
z"/>
<path fill="#F5F5F5" opacity="1.000000" stroke="none" 
	d="
M278.174896,45.164055 
	C273.936249,47.389561 270.016602,49.435513 266.000824,51.531631 
	C264.373810,45.804188 266.531372,39.056740 270.588135,36.156849 
	C274.677917,33.233345 282.474670,34.074677 288.153137,38.373352 
	C284.833557,40.645382 281.663696,42.814941 278.174896,45.164055 
z"/>
<path fill="#F6F6F6" opacity="1.000000" stroke="none" 
	d="
M85.794762,155.696991 
	C85.999245,156.002518 85.990044,156.468384 85.985641,156.701324 
	C79.193115,162.427658 71.862923,166.916611 62.831886,170.004578 
	C63.158451,168.026840 63.256279,166.923721 63.528145,165.865311 
	C67.034637,152.213913 72.351898,149.696335 85.794762,155.696991 
z"/>
<path fill="#AAAAAA" opacity="1.000000" stroke="none" 
	d="
M437.340637,146.825104 
	C436.892914,146.361588 436.901520,146.017349 436.921631,145.411926 
	C441.126831,145.150726 445.320526,145.150726 449.514221,145.150726 
	C449.516296,145.562637 449.518372,145.974548 449.520477,146.386475 
	C445.612610,146.572433 441.704773,146.758408 437.340637,146.825104 
z"/>
<path fill="#060606" opacity="1.000000" stroke="none" 
	d="
M239.457977,192.051666 
	C242.839294,202.560287 232.830658,209.100601 225.798187,206.016266 
	C221.842346,204.281281 219.244476,201.484390 219.014313,197.014282 
	C218.781113,192.485046 220.599686,188.933456 224.607941,186.680023 
	C228.495071,184.494690 232.322189,184.819260 235.760910,187.571350 
	C237.141876,188.676544 238.094635,190.316788 239.457977,192.051666 
z"/>
</svg>